<svg xmlns="http://www.w3.org/2000/svg" version="1.1" xmlns:xlink="http://www.w3.org/1999/xlink" width="42" height="42"><svg xmlns="http://www.w3.org/2000/svg" version="1.1" xmlns:xlink="http://www.w3.org/1999/xlink" width="42" height="42"><svg width="42" height="42" viewBox="0 0 42 42" fill="none" xmlns="http://www.w3.org/2000/svg">
<rect width="42" height="42" rx="8" fill="white"></rect>
<path d="M13 7C15.2091 7 17 8.79086 17 11V31C17 33.2091 15.2091 35 13 35H11C8.79086 35 7 33.2091 7 31V11C7 8.79086 8.79086 7 11 7H13ZM29 19C32.3137 19 35 21.6863 35 25V29C35 32.3137 32.3137 35 29 35H25C21.6863 35 19 32.3137 19 29V25C19 21.6863 21.6863 19 25 19H29Z" fill="black"></path>
</svg></svg><style>@media (prefers-color-scheme: light) { :root { filter: none; } }
@media (prefers-color-scheme: dark) { :root { filter: none; } }
</style></svg>