<svg width="70" height="58" viewBox="0 0 70 58" fill="none" xmlns="http://www.w3.org/2000/svg">
<path d="M4.77738 24.7964C23.4374 16.6684 35.8772 11.3094 42.0972 8.72042C59.8772 1.32742 63.5671 0.0434229 65.9771 0.000422898C66.5071 -0.0085771 67.6871 0.122422 68.4571 0.745422C69.0971 1.27042 69.2772 1.98042 69.3672 2.47842C69.4472 2.97642 69.5573 4.11142 69.4673 4.99742C68.5073 15.1174 64.3373 39.6754 62.2173 51.0104C61.3273 55.8066 59.5572 57.4146 57.8472 57.5716C54.1272 57.9136 51.3071 55.1156 47.7071 52.7564C42.0771 49.0634 38.8973 46.7654 33.4273 43.1624C27.1073 38.9984 31.2072 36.7094 34.8072 32.9694C35.7472 31.9904 52.127 17.0954 52.437 15.7444C52.477 15.5754 52.5172 14.9454 52.1372 14.6134C51.7672 14.2804 51.2169 14.3944 50.8169 14.4844C50.2469 14.6124 41.2569 20.5604 23.8169 32.3274C21.2669 34.0814 18.957 34.9364 16.877 34.8914C14.597 34.8424 10.1973 33.5994 6.92728 32.5374C2.92728 31.2344 -0.262877 30.5454 0.0171234 28.3324C0.157123 27.1804 1.74738 26.0014 4.77738 24.7964Z" fill="black"/>
</svg>
