<svg width="21" height="28" viewBox="0 0 21 28" fill="none" xmlns="http://www.w3.org/2000/svg">
<path d="M20.0285 17.1554C20.0135 17.0905 19.9948 17.0275 19.9742 16.9663L15.287 3.6553C14.7519 2.1943 13.6479 1.0255 12.2371 0.427799C11.5598 0.143199 10.8431 0 10.1246 0C9.4099 0 8.6951 0.1413 8.0215 0.4259L8.014 0.429701C6.5976 1.0255 5.488 2.1981 4.9547 3.6648L0.3611 16.3476C0.1291 16.8919 0 17.4953 0 18.1275C0 19.5732 0.6736 20.8584 1.7177 21.6758C1.7907 21.7331 1.8599 21.7942 1.9235 21.863C1.9553 21.8973 1.989 21.9298 2.0227 21.9623L7.1645 26.7883C7.7109 27.3211 8.3845 27.6973 9.118 27.8768C9.7822 28.0411 10.4764 28.0411 11.1406 27.8768C11.8741 27.6954 12.5496 27.3192 13.0941 26.7883L18.2341 21.9623C18.3837 21.8152 18.5185 21.6739 18.6625 21.5039C18.6831 21.4791 18.7056 21.4543 18.728 21.4314C19.5551 20.5739 20.1314 19.4318 20.1314 18.1275C20.1332 17.7933 20.0958 17.4686 20.0285 17.1554ZM12.6039 24.2234C11.9115 24.7964 11.0284 25.1401 10.0685 25.1401C9.1086 25.1401 8.2254 24.7964 7.5331 24.2234C7.3292 24.0554 7.3292 23.7384 7.5331 23.5684C8.2254 22.9955 9.1086 22.6517 10.0685 22.6517C11.0284 22.6517 11.9115 22.9955 12.6039 23.5684C12.8059 23.7365 12.8059 24.0535 12.6039 24.2234ZM16.4715 20.4135L13.9436 22.9936C13.7321 23.2094 13.3897 23.2342 13.1577 23.0413C12.2858 22.3194 11.2061 21.9279 10.0666 21.9279C8.9271 21.9279 7.8493 22.3194 6.9755 23.0413C6.8689 23.1291 6.7416 23.1731 6.6125 23.1731C6.461 23.1731 6.3057 23.112 6.1915 22.9936L3.6637 20.4135C3.4223 20.1671 3.4298 19.7641 3.6842 19.535C5.4506 17.946 7.694 17.079 10.0685 17.079C12.4429 17.079 14.6864 17.946 16.4528 19.535C16.7054 19.7641 16.711 20.1671 16.4715 20.4135ZM16.4509 13.6128C14.6845 15.2017 12.4411 16.0688 10.0666 16.0688C7.6922 16.0688 5.4487 15.2017 3.6824 13.6128C3.4279 13.3836 3.4204 12.9788 3.6618 12.7343L6.1897 10.1542C6.4011 9.9384 6.7435 9.9136 6.9755 10.1065C7.8475 10.8284 8.9271 11.2199 10.0666 11.2199C11.2043 11.2199 12.2839 10.8284 13.1558 10.1065C13.3897 9.9136 13.7303 9.9384 13.9417 10.1542L16.4696 12.7343C16.7128 12.9788 16.7054 13.3836 16.4509 13.6128Z" fill="#FED702"/>
</svg>
