<svg width="33" height="32" viewBox="0 0 33 32" fill="none" xmlns="http://www.w3.org/2000/svg">
<path d="M31.7305 19.499C30.1284 26.6528 23.7195 32 16.0576 32C14.1565 32 12.3322 31.6708 10.6396 31.0664L11.4404 27.3838C12.4401 22.7824 16.5245 19.499 21.249 19.499H31.7305ZM3.82129 19.499C7.77527 19.4991 10.7194 23.1364 9.88281 26.9873L9.13281 30.4395C4.75127 28.3492 1.46932 24.3374 0.385742 19.499H3.82129ZM13.5703 10.0137C12.5707 14.615 8.48617 17.8983 3.76172 17.8984H0.112305C0.0383354 17.2754 0 16.641 0 15.998C0.000242802 7.26479 7.02168 0.165714 15.7461 0L13.5703 10.0137ZM17.3779 0.0507812C25.6289 0.719748 32.116 7.6038 32.1162 15.998C32.1162 16.6409 32.0779 17.2754 32.0039 17.8984H21.1895C17.2355 17.8984 14.2904 14.2611 15.127 10.4102L17.3779 0.0507812Z" fill="url(#paint0_linear_57_159)"/>
<defs>
<linearGradient id="paint0_linear_57_159" x1="18.9416" y1="6.49024e-07" x2="12.6408" y2="32.0507" gradientUnits="userSpaceOnUse">
<stop stop-color="#F4D5B1"/>
<stop offset="1" stop-color="#FFD29F"/>
</linearGradient>
</defs>
</svg>
