<svg width="406" height="405" viewBox="0 0 406 405" fill="none" xmlns="http://www.w3.org/2000/svg">
<path d="M202.572 161.336C207.704 182.969 221.674 196.618 243.841 203.389C244.248 203.515 244.605 203.768 244.858 204.111C245.111 204.455 245.247 204.87 245.247 205.296C245.247 205.722 245.111 206.137 244.858 206.48C244.605 206.824 244.248 207.077 243.841 207.203C233.868 209.569 224.739 214.635 217.453 221.845C210.168 229.055 205.007 238.132 202.537 248.08C202.421 248.501 202.17 248.873 201.822 249.138C201.475 249.403 201.049 249.547 200.612 249.547C200.175 249.547 199.75 249.403 199.402 249.138C199.055 248.873 198.804 248.501 198.688 248.08C196.193 238.361 191.177 229.473 184.147 222.313C176.973 215.001 167.962 209.757 158.061 207.131C157.653 207.005 157.297 206.752 157.044 206.409C156.791 206.066 156.654 205.651 156.654 205.225C156.654 204.798 156.791 204.383 157.044 204.04C157.297 203.697 157.653 203.444 158.061 203.318C179.978 196.903 193.449 182.969 198.759 161.336C198.885 160.929 199.138 160.573 199.481 160.32C199.824 160.067 200.239 159.93 200.666 159.93C201.092 159.93 201.507 160.067 201.85 160.32C202.193 160.573 202.446 160.929 202.572 161.336Z" fill="#61D7EF"/>
<path d="M324.132 243.02C324.134 284.958 307.879 325.265 278.784 355.47C249.689 385.675 210.018 403.427 168.109 404.995C167.333 405.028 166.558 404.905 165.831 404.632C165.104 404.359 164.439 403.942 163.877 403.407C163.315 402.871 162.866 402.227 162.559 401.514C162.251 400.801 162.09 400.034 162.086 399.257V324.06C180.784 324.057 198.905 317.591 213.382 305.758C227.859 293.924 237.8 277.451 241.523 259.128C242.364 254.644 244.736 250.59 248.232 247.659C251.729 244.728 256.134 243.101 260.696 243.055L324.132 243.02Z" fill="#61D7EF"/>
<path d="M161.98 260.59V324.061C120.041 324.063 79.7344 307.808 49.5293 278.713C19.3243 249.618 1.57304 209.947 0.00540276 168.038C-0.0281672 167.262 0.0949528 166.487 0.367783 165.76C0.640623 165.033 1.05759 164.368 1.59328 163.806C2.12897 163.244 2.77219 162.795 3.48524 162.487C4.1983 162.18 4.96645 162.019 5.74308 162.015H80.9393C80.969 180.712 87.4655 198.822 99.3268 213.275C111.188 227.728 127.683 237.633 146.015 241.31C150.494 242.183 154.533 244.581 157.443 248.096C160.354 251.611 161.958 256.026 161.98 260.59Z" fill="#61D7EF"/>
<path d="M144.518 161.979H81.0469C81.0456 120.034 97.3048 79.7221 126.408 49.5162C155.51 19.3102 195.19 1.56259 237.106 0.00395156C237.881 -0.0246384 238.653 0.102141 239.378 0.376781C240.103 0.651411 240.766 1.06843 241.327 1.60314C241.888 2.13785 242.337 2.77954 242.646 3.49032C242.956 4.2011 243.12 4.96668 243.129 5.74184V80.9381C224.425 80.9367 206.296 87.4053 191.817 99.247C177.338 111.088 167.401 127.573 163.692 145.906C162.857 150.394 160.487 154.451 156.989 157.383C153.491 160.316 149.082 161.94 144.518 161.979Z" fill="#61D7EF"/>
<path d="M243.094 144.445V80.9377C285.036 80.9272 325.347 97.179 355.554 126.276C385.761 155.373 403.51 195.049 405.069 236.961C405.107 237.735 404.989 238.509 404.72 239.236C404.451 239.963 404.038 240.628 403.505 241.191C402.972 241.754 402.331 242.203 401.619 242.511C400.908 242.819 400.142 242.98 399.367 242.984H324.135C324.135 224.284 317.665 206.16 305.823 191.687C293.981 177.214 277.497 167.285 259.167 163.582C254.688 162.742 250.639 160.376 247.709 156.887C244.778 153.398 243.148 149.001 243.094 144.445Z" fill="#61D7EF"/>
</svg>
